<svg width="100%" height="100%" id="svg" viewBox="0 0 1440 690" xmlns="http://www.w3.org/2000/svg" class="transition duration-300 ease-in-out delay-150"><defs><linearGradient id="gradient" x1="79%" y1="10%" x2="21%" y2="90%"><stop offset="5%" stop-color="#abb8c3"></stop><stop offset="95%" stop-color="#0693e3"></stop></linearGradient></defs><path d="M 0,700 L 0,175 C 140.71428571428572,216.28571428571428 281.42857142857144,257.57142857142856 402,249 C 522.5714285714286,240.42857142857142 623.0000000000001,182 718,153 C 812.9999999999999,123.99999999999999 902.5714285714287,124.42857142857142 1022,133 C 1141.4285714285713,141.57142857142858 1290.7142857142858,158.28571428571428 1440,175 L 1440,700 L 0,700 Z" stroke="none" stroke-width="0" fill="url(#gradient)" fill-opacity="0.53" class="transition-all duration-300 ease-in-out delay-150 path-0"></path><defs><linearGradient id="gradient" x1="79%" y1="10%" x2="21%" y2="90%"><stop offset="5%" stop-color="#abb8c3"></stop><stop offset="95%" stop-color="#0693e3"></stop></linearGradient></defs><path d="M 0,700 L 0,408 C 102.17857142857142,399.3928571428571 204.35714285714283,390.7857142857143 339,383 C 473.64285714285717,375.2142857142857 640.7500000000001,368.25 753,353 C 865.2499999999999,337.75 922.6428571428571,314.21428571428567 1028,322 C 1133.357142857143,329.78571428571433 1286.6785714285716,368.89285714285717 1440,408 L 1440,700 L 0,700 Z" stroke="none" stroke-width="0" fill="url(#gradient)" fill-opacity="1" class="transition-all duration-300 ease-in-out delay-150 path-1"></path></svg>